<?xml version="1.0" encoding="UTF-8"?>
<!DOCTYPE svg PUBLIC "-//W3C//DTD SVG 1.1//EN" "http://www.w3.org/Graphics/SVG/1.1/DTD/svg11.dtd">
<svg version="1.1" xmlns="http://www.w3.org/2000/svg" xmlns:xlink="http://www.w3.org/1999/xlink" x="0" y="0" width="150" height="150" viewBox="0, 0, 150, 150">
  <g id="Flash_Drought">
    <path d="M75,150 C33.579,150 -0,116.421 -0,75 C-0,33.579 33.579,0 75,-0 C116.421,0 150,33.579 150,75 C150,116.421 116.421,150 75,150 z" fill="#8FCBDB" id="Full"/>
    <path d="M0,75 L0,75 L150,75 C149.449,117.185 116.802,148.944 75,150 C33.579,150 0,116.421 0,75 z" fill="#1A6A92" id="Lower"/>
    <g id="Plant">
      <path d="M61.339,77.475 C67.211,68.665 62.675,35.896 62.137,27.56 C61.937,24.378 74.15,27.56 75.487,36.635" fill-opacity="0" stroke="#196A91" stroke-width="4" stroke-linecap="round"/>
      <path d="M60.408,46.611 C55.407,50.719 54.575,64.36 54.575,64.36 C54.575,64.36 51.248,54.905 52.824,44.407 C54.4,33.91 56.975,29.498 59.725,25.996 C63.91,20.662 68.607,39.872 60.408,46.611" fill="#196A91"/>
      <path d="M81.982,48.926 C79.399,54.858 84.86,67.384 84.86,67.384 C84.86,67.384 76.759,59.415 73.386,49.353 C70.016,39.287 72.122,38.668 71.994,30.878 C71.887,24.096 86.218,39.193 81.982,48.926" fill="#196A91"/>
    </g>
    <path d="M73.474,75 L57.815,89.681 L100.416,90.283 L120.868,90.569 L101.305,96.548 L88.444,100.477 L99.502,102.428 L104.204,103.261 L101.911,106.798 L92.542,121.245 L95.208,108.175 L77.16,104.99 L71.799,113.926 L70.842,115.519 L68.985,115.48 L40.594,114.862 L43.02,122.783 L42.413,123.125 L33.522,113.136 L29.132,108.207 L36.383,108.365 L67.264,109.034 L70.405,103.798 L61.051,102.147 L73.811,98.252 L79.877,96.398 L49.789,95.976 L41.855,95.864 L47.646,90.436 L64.109,75 L73.474,75 z" fill="#8FCBDB"/>
  </g>
</svg>
