<?xml version="1.0" encoding="UTF-8"?>
<!DOCTYPE svg PUBLIC "-//W3C//DTD SVG 1.1//EN" "http://www.w3.org/Graphics/SVG/1.1/DTD/svg11.dtd">
<svg version="1.1" xmlns="http://www.w3.org/2000/svg" xmlns:xlink="http://www.w3.org/1999/xlink" x="0" y="0" width="150" height="150" viewBox="0, 0, 150, 150">
  <g id="Mid-century">
    <path d="M150,74.998 C150,116.419 116.425,150 75,150 C33.575,150 -0,116.419 -0,74.998 C-0,33.581 33.575,-0 75,-0 C116.425,-0 150,33.581 150,74.998" fill="#8FCBDB" id="Full"/>
    <path d="M23.808,101.67 L23.808,90.447 L28.113,90.447 L28.113,59.475 L23.808,59.475 L23.808,48.329 L41.715,48.329 L55.397,71.62 L68.384,48.329 L86.14,48.329 L86.14,59.475 L81.836,59.475 L81.836,90.447 L86.14,90.447 L86.14,101.67 L67.389,101.67 L67.389,73.234 L54.705,95.444 L41.715,73.234 L41.715,101.67 z M90.145,90.91 C90.145,97.597 94.219,101.671 100.445,101.671 L126.192,101.671 L126.192,81.378 L113.124,81.378 L113.124,90.448 L105.283,90.448 L105.283,59.476 L113.124,59.476 L113.124,65.856 L126.192,65.856 L126.192,48.33 L100.445,48.33 C94.295,48.33 90.145,52.481 90.145,59.091 L90.145,90.91" fill="#196A91"/>
  </g>
</svg>
