<?xml version="1.0" encoding="UTF-8"?>
<!DOCTYPE svg PUBLIC "-//W3C//DTD SVG 1.1//EN" "http://www.w3.org/Graphics/SVG/1.1/DTD/svg11.dtd">
<svg version="1.1" xmlns="http://www.w3.org/2000/svg" xmlns:xlink="http://www.w3.org/1999/xlink" x="0" y="0" width="150" height="150" viewBox="0, 0, 150, 150">
          <defs>
    <clipPath id="Lower-mask">
      <path d="M0,75 L0,75 L150,75 C149.449,117.185 116.802,148.944 75,150 C33.579,150 0,116.421 0,75 z"/>
    </clipPath>
  </defs>
    <g id="Soil_Saturation">
    <path d="M75,150 C33.579,150 -0,116.421 -0,75 C-0,33.579 33.579,0 75,-0 C116.421,0 150,33.579 150,75 C150,116.421 116.421,150 75,150 z" fill="#8FCBDB" id="Full"/>
    <path d="M0,75 L0,75 L150,75 C149.449,117.185 116.802,148.944 75,150 C33.579,150 0,116.421 0,75 z" fill="#1A6A92" id="Lower"/>
    <g id="Raindrops">
      <path d="M71.833,60 C76.833,68 86.833,76 86.833,85 C86.833,94 80.833,102 71.833,102 C62.478,102 56.833,94 56.833,85 C56.833,76 66.833,68 71.833,60 L71.833,60 z" fill="#8FCBDB"/>
      <path d="M72.333,60.5 C77.333,68.5 87.333,76.5 87.333,85.5 C87.333,94.5 81.333,102.5 72.333,102.5 C62.978,102.5 57.333,94.5 57.333,85.5 C57.333,76.5 67.333,68.5 72.333,60.5 L72.333,60.5 z" fill-opacity="0" stroke="#1A6A92" stroke-width="2"/>
      <path d="M56.233,28.46 C59.9,34.326 67.233,40.193 67.233,46.793 C67.233,53.393 62.833,59.26 56.233,59.26 C49.373,59.26 45.233,53.393 45.233,46.793 C45.233,40.193 52.567,34.326 56.233,28.46 L56.233,28.46 z" fill="#196A91"/>
      <path d="M90.5,22.2 C95,29.4 104,36.6 104,44.7 C104,52.8 98.6,60 90.5,60 C82.081,60 77,52.8 77,44.7 C77,36.6 86,29.4 90.5,22.2 L90.5,22.2 z" fill="#196A91"/>
    </g>
    <path d="M150,81 L150,84 L0,84 L0,81 L150,81 z M150,89.5 L0,89.5 L0,91.5 L150,91.5 L150,89.5 z M150,97 L0,97 L0,98 L150,98 L150,97 z" fill="#8FCBDB" id="Lines" clip-path="url(#Lower-mask)"/>
  </g>
</svg>
