<?xml version="1.0" encoding="UTF-8"?>
<!DOCTYPE svg PUBLIC "-//W3C//DTD SVG 1.1//EN" "http://www.w3.org/Graphics/SVG/1.1/DTD/svg11.dtd">
<svg version="1.1" xmlns="http://www.w3.org/2000/svg" xmlns:xlink="http://www.w3.org/1999/xlink" x="0" y="0" width="150" height="150" viewBox="0, 0, 150, 150">
  <g id="Snow_Water_Equivalent">
    <path d="M75,150 C33.579,150 -0,116.421 -0,75 C-0,33.579 33.579,0 75,-0 C116.421,0 150,33.579 150,75 C150,116.421 116.421,150 75,150 z" fill="#8FCBDB" id="Full"/>
    <path d="M92.626,102.394 C91.665,104.743 89.017,106.895 85.934,105.669 C82.864,104.384 82.488,100.993 83.444,98.644 C84.79,95.335 91.379,93.101 91.148,92.892 C90.841,92.879 93.975,99.088 92.626,102.394" fill="#196A91"/>
    <path d="M64.243,107.719 C64.473,107.929 57.884,110.167 56.535,113.472 C55.578,115.825 55.958,119.212 59.024,120.501 C62.112,121.727 64.759,119.575 65.72,117.222 C67.07,113.92 63.935,107.707 64.243,107.719" fill="#196A91"/>
    <path d="M116.831,71.305 C116.831,61.854 109.165,54.189 99.715,54.189 C97.883,54.189 96.123,54.483 94.466,55.017 C93.382,43.982 84.072,35.355 72.755,35.355 C60.696,35.355 50.925,45.131 50.925,57.182 C50.925,58.647 51.079,60.082 51.352,61.461 L47.286,61.461 C39.843,61.461 33.809,67.5 33.809,74.948 C33.809,82.387 39.843,88.426 47.286,88.426 L101.214,88.426 C105.177,88.426 108.734,86.701 111.202,83.972 C114.649,80.841 116.831,76.332 116.831,71.305" fill="#196A91"/>
    <path d="M61.528,100.446 L57.099,100.446 L59.354,104.358 L57.795,105.392 L55.574,101.292 L53.491,105.533 L51.928,104.593 L54.101,100.446 L49.626,100.54 L49.626,98.559 L54.012,98.559 L51.624,94.506 L53.187,93.417 L55.536,97.709 L57.795,93.327 L59.401,94.318 L57.099,98.559 L61.528,98.465 z" fill="#196A91"/>
    <path d="M77.463,100.446 L73.03,100.446 L75.289,104.358 L73.726,105.392 L71.51,101.292 L69.426,105.533 L67.863,104.593 L70.036,100.446 L65.561,100.54 L65.561,98.559 L69.947,98.559 L67.56,94.506 L69.123,93.417 L71.471,97.709 L73.726,93.327 L75.336,94.318 L73.03,98.559 L77.463,98.465 z" fill="#196A91"/>
    <path d="M83.335,115.542 L78.902,115.542 L81.161,119.453 L79.598,120.491 L77.382,116.391 L75.298,120.628 L73.735,119.688 L75.904,115.542 L71.429,115.636 L71.429,113.654 L75.819,113.654 L73.431,109.605 L74.994,108.512 L77.339,112.804 L79.598,108.427 L81.204,109.413 L78.902,113.654 L83.335,113.56 z" fill="#196A91"/>
  </g>
</svg>
