<?xml version="1.0" encoding="UTF-8"?>
<!DOCTYPE svg PUBLIC "-//W3C//DTD SVG 1.1//EN" "http://www.w3.org/Graphics/SVG/1.1/DTD/svg11.dtd">
<svg version="1.1" xmlns="http://www.w3.org/2000/svg" xmlns:xlink="http://www.w3.org/1999/xlink" x="0" y="0" width="150" height="150" viewBox="0, 0, 150, 150">
  <g id="Mid-century">
    <path d="M150,74.998 C150,116.419 116.425,150 75,150 C33.575,150 -0,116.419 -0,74.998 C-0,33.581 33.575,0 75,0 C116.425,0 150,33.581 150,74.998" fill="#8FCBDB" id="Full"/>
    <path d="M106.235,74.436 C106.235,74.436 104.821,89.992 94.922,99.892 C87.851,106.963 76.537,104.134 76.537,104.134 C76.537,104.134 73.709,92.821 80.78,85.75 C90.679,75.85 106.235,74.436 106.235,74.436 L106.235,74.436 z" fill="#196A91"/>
    <path d="M43.765,74.436 C43.765,74.436 59.321,75.85 69.22,85.75 C76.291,92.821 73.463,104.134 73.463,104.134 C73.463,104.134 62.149,106.963 55.078,99.892 C45.179,89.992 43.765,74.436 43.765,74.436 L43.765,74.436 z" fill="#196A91"/>
    <path d="M106.235,100.693 C106.235,100.693 104.821,116.249 94.922,126.149 C87.851,133.22 76.537,130.391 76.537,130.391 C76.537,130.391 73.709,119.078 80.78,112.007 C90.679,102.107 106.235,100.693 106.235,100.693 L106.235,100.693 z" fill="#196A91"/>
    <path d="M43.765,100.693 C43.765,100.693 59.321,102.107 69.22,112.007 C76.291,119.078 73.463,130.391 73.463,130.391 C73.463,130.391 62.149,133.22 55.078,126.149 C45.179,116.249 43.765,100.693 43.765,100.693 L43.765,100.693 z" fill="#196A91"/>
    <path d="M106.235,48.179 C106.235,48.179 104.821,63.735 94.922,73.634 C87.851,80.706 76.537,77.877 76.537,77.877 C76.537,77.877 73.709,66.563 80.78,59.492 C90.679,49.593 106.235,48.179 106.235,48.179 L106.235,48.179 z" fill="#196A91"/>
    <path d="M43.765,48.179 C43.765,48.179 59.321,49.593 69.22,59.492 C76.291,66.563 73.463,77.877 73.463,77.877 C73.463,77.877 62.149,80.706 55.078,73.634 C45.179,63.735 43.765,48.179 43.765,48.179 L43.765,48.179 z" fill="#196A91"/>
    <path d="M75,19.05 C75,19.05 84,29.05 84,43.05 C84,53.05 75,61.05 75,61.05 C75,61.05 66,53.05 66,43.05 C66,29.05 75,19.05 75,19.05 L75,19.05 z" fill="#196A91"/>
  </g>
</svg>
