<?xml version="1.0" encoding="UTF-8"?>
<!DOCTYPE svg PUBLIC "-//W3C//DTD SVG 1.1//EN" "http://www.w3.org/Graphics/SVG/1.1/DTD/svg11.dtd">
<svg version="1.1" xmlns="http://www.w3.org/2000/svg" xmlns:xlink="http://www.w3.org/1999/xlink" x="0" y="0" width="150" height="150" viewBox="0, 0, 150, 150">
        <defs>
    <clipPath id="Lower-mask">
      <path d="M0,75 L0,75 L150,75 C149.449,117.185 116.802,148.944 75,150 C33.579,150 0,116.421 0,75 z"/>
    </clipPath>
  </defs>
    <g id="Layer_1">
    <path d="M75,150 C33.579,150 -0,116.421 -0,75 C-0,33.579 33.579,0 75,-0 C116.421,0 150,33.579 150,75 C150,116.421 116.421,150 75,150 z" fill="#8FCBDB" id="Full"/>
    <path d="M0,75 L0,75 L150,75 C149.449,117.185 116.802,148.944 75,150 C33.579,150 0,116.421 0,75 z" fill="#1A6A92" id="Lower"/>
    <g id="Lines">
      <path d="M150,135.5 L150,139.5 L0,139.5 L0,135.5 L150,135.5 z M150,127.5 L0,127.5 L0,131.5 L150,131.5 L150,127.5 z M150,119.5 L0,119.5 L0,123.5 L150,123.5 L150,119.5 z" fill="#8FCBDB" clip-path="url(#Lower-mask)"/>
    </g>
    <g id="Plant">
      <path d="M70.86,75.497 C76.732,66.687 72.197,33.918 71.659,25.582 C71.458,22.4 83.672,25.582 85.008,34.657" fill-opacity="0" stroke="#196A91" stroke-width="4" stroke-linecap="round"/>
      <path d="M69.93,44.633 C64.929,48.741 64.096,62.382 64.096,62.382 C64.096,62.382 60.77,52.926 62.346,42.429 C63.921,31.932 66.496,27.52 69.247,24.018 C73.432,18.684 78.129,37.894 69.93,44.633" fill="#196A91"/>
      <path d="M91.504,46.948 C88.92,52.88 94.382,65.406 94.382,65.406 C94.382,65.406 86.281,57.437 82.907,47.375 C79.538,37.309 81.643,36.69 81.515,28.9 C81.409,22.118 95.74,37.215 91.504,46.948" fill="#196A91"/>
    </g>
    <path d="M72.694,74.997 L88.006,85.251 L101.514,90.425 L102.62,99.397 L99.842,92.055 L88.547,87.728 C88.309,94.848 88.236,94.921 88.151,94.917 L86.69,86.911 L74.676,79.606 L78.777,97.291 L77.819,100.531 L87.649,108.243 C93.315,117.886 93.303,117.954 93.255,117.984 L86.881,110.853 C82.806,124.695 82.786,124.708 82.766,124.7 L85.373,109.109 L77.201,102.625 C75.335,108.949 75.129,109.064 74.935,109 L76.699,97.29 C76.715,97.308 72.263,78.692 72.263,78.676 L70.835,77.27 L70.835,88.602 L66.701,97.877 L72.014,104.378 L65.914,99.643 L62.565,107.155 C69.414,118.585 69.382,118.739 69.269,118.812 L60.233,107.372 L68.817,88.127 L68.817,77.504 L59.782,83.017 L61.922,92.1 L58.025,84.09 L53.6,86.791 L55.582,101.482 L47.638,111.984 L59.779,135.822 L45.19,111.807 L53.462,100.868 L52.431,93.234 L35.285,98.009 L29.63,105.445 L34.025,96.149 L52.144,91.105 L51.624,87.256 L43.81,86.893 C35.272,88.646 35.142,88.552 35.114,88.411 L43.614,85.584 L43.658,85.572 L43.759,85.567 L52.208,85.175 L68.353,74.998 z" fill="#8FCBDB"/>
  </g>
</svg>
