<?xml version="1.0" encoding="UTF-8"?>
<!DOCTYPE svg PUBLIC "-//W3C//DTD SVG 1.1//EN" "http://www.w3.org/Graphics/SVG/1.1/DTD/svg11.dtd">
<svg version="1.1" xmlns="http://www.w3.org/2000/svg" xmlns:xlink="http://www.w3.org/1999/xlink" x="0" y="0" width="150" height="150" viewBox="0, 0, 150, 150">
  <g id="Drought">
    <path d="M75,150 C33.579,150 -0,116.421 -0,75 C-0,33.579 33.579,0 75,-0 C116.421,0 150,33.579 150,75 C150,116.421 116.421,150 75,150 z" fill="#8FCBDB" id="Full"/>
    <path d="M74.983,44.335 C91.98,44.335 105.756,58.112 105.756,75.11 C105.756,77.693 105.402,80.188 104.804,82.583 L45.162,82.583 C44.564,80.188 44.21,77.693 44.21,75.11 C44.21,58.112 57.986,44.335 74.983,44.335 z M39.984,71.776 L31.653,75.107 L39.984,78.439 C39.882,77.341 39.818,76.231 39.818,75.107 C39.818,73.984 39.882,72.878 39.984,71.776 z M110.018,71.671 C110.121,72.769 110.189,73.875 110.189,74.998 C110.189,76.121 110.121,77.231 110.018,78.329 L118.35,74.998 L110.018,71.671 z M114.03,56.3 L105.049,56.928 C106.193,58.82 107.163,60.827 107.94,62.928 L114.03,56.3 z M35.94,56.294 L42.03,62.926 C42.807,60.825 43.776,58.818 44.921,56.926 L35.94,56.294 z M47.959,41.23 L50.564,49.831 C52.161,48.285 53.899,46.893 55.766,45.675 L47.959,41.23 z M102.006,41.229 L94.199,45.675 C96.066,46.892 97.804,48.284 99.401,49.83 L102.006,41.229 z M84.623,32.851 L79.515,40.265 C81.749,40.551 83.927,41.042 86.011,41.729 L84.623,32.851 z M65.343,32.85 L63.955,41.729 C66.039,41.041 68.213,40.55 70.451,40.264 L65.343,32.85 z" fill="#196A91" id="Sun"/>
    <path d="M0,75 L0,75 L150,75 C149.449,117.185 116.802,148.944 75,150 C33.579,150 0,116.421 0,75 z" fill="#1A6A92" id="Lower"/>
    <path d="M73.474,75 L57.815,89.681 L100.416,90.283 L120.868,90.569 L101.305,96.548 L88.444,100.477 L99.502,102.428 L104.204,103.261 L101.911,106.798 L92.542,121.245 L95.208,108.175 L77.16,104.99 L71.799,113.926 L70.842,115.519 L68.985,115.48 L40.594,114.862 L43.02,122.783 L42.413,123.125 L33.522,113.136 L29.132,108.207 L36.383,108.365 L67.264,109.034 L70.405,103.798 L61.051,102.147 L73.811,98.252 L79.877,96.398 L49.789,95.976 L41.855,95.864 L47.646,90.436 L64.109,75 L73.474,75 z" fill="#8FCBDB" id="Crack"/>
  </g>
</svg>
