<?xml version="1.0" encoding="UTF-8"?>
<!DOCTYPE svg PUBLIC "-//W3C//DTD SVG 1.1//EN" "http://www.w3.org/Graphics/SVG/1.1/DTD/svg11.dtd">
<svg version="1.1" xmlns="http://www.w3.org/2000/svg" xmlns:xlink="http://www.w3.org/1999/xlink" x="0" y="0" width="150" height="150" viewBox="0, 0, 150, 150">
  <g id="ENSO">
    <path d="M75,150 C33.579,150 -0,116.421 -0,75 C-0,33.579 33.579,0 75,-0 C116.421,0 150,33.579 150,75 C150,116.421 116.421,150 75,150 z" fill="#8FCBDB" id="Full"/>
    <path d="M113.567,45.833 C118.29,54.327 120.114,64.008 113.119,70.752 C109.732,74.023 105.274,75.778 100.563,75.693 C95.862,75.603 91.467,73.694 88.196,70.307 C87.368,69.445 86.629,68.505 85.997,67.51 L85.813,67.211 C83.874,64.119 81.94,61.121 79.766,58.704 C77.627,56.15 75.667,53.323 72.733,52.303 C43.698,42.173 16.662,74.416 16.739,74.531 C13.083,67.254 18.161,51.269 24.007,43.757 C47.413,13.671 99.876,21.204 113.567,45.833 M14.099,73.322 C14.099,73.322 14.099,73.318 14.099,73.314 C14.099,73.318 14.099,73.318 14.099,73.322" fill="#196A91" id="Upper"/>
    <path d="M36.433,104.163 C31.71,95.669 29.887,85.988 36.882,79.245 C40.268,75.973 44.726,74.218 49.437,74.304 C54.138,74.393 58.533,76.302 61.804,79.689 C62.632,80.551 63.371,81.491 64.003,82.486 L64.187,82.785 C66.126,85.877 68.06,88.875 70.234,91.292 C72.373,93.846 74.333,96.673 77.267,97.694 C106.302,107.823 133.338,75.58 133.262,75.465 C136.917,82.742 131.84,98.727 125.993,106.239 C102.587,136.325 50.124,128.792 36.433,104.163 M135.901,76.674 C135.901,76.674 135.901,76.678 135.901,76.682 C135.901,76.678 135.901,76.678 135.901,76.674" fill="#196A91" id="Lower"/>
  </g>
</svg>
