<?xml version="1.0" encoding="UTF-8"?>
<!DOCTYPE svg PUBLIC "-//W3C//DTD SVG 1.1//EN" "http://www.w3.org/Graphics/SVG/1.1/DTD/svg11.dtd">
<svg version="1.1" xmlns="http://www.w3.org/2000/svg" xmlns:xlink="http://www.w3.org/1999/xlink" x="0" y="0" width="150" height="150" viewBox="0, 0, 150, 150">
  <g id="Normals">
    <path d="M75,150 C33.579,150 -0,116.421 -0,75 C-0,33.579 33.579,0 75,-0 C116.421,0 150,33.579 150,75 C150,116.421 116.421,150 75,150 z" fill="#8FCBDB" id="Full"/>
    <path d="M71.606,42.172 L70.461,34.865 L66.263,40.968 C68.104,41.202 69.889,41.604 71.606,42.172 M58.801,40.966 C56.96,41.205 55.171,41.603 53.459,42.17 L54.599,34.864 L58.801,40.966 M37.793,54.676 C36.849,56.235 36.055,57.883 35.41,59.613 L30.401,54.155 L37.793,54.676 M46.718,45.418 C45.184,46.422 43.754,47.566 42.439,48.839 L40.295,41.758 L46.718,45.418 M82.623,48.838 C81.308,47.57 79.878,46.421 78.345,45.418 L84.767,41.762 L82.623,48.838 M89.65,59.616 C89.01,57.887 88.211,56.234 87.267,54.68 L94.664,54.159 L89.65,59.616 M33.594,69.637 C33.594,70.564 33.649,71.473 33.73,72.379 L26.876,69.637 L33.73,66.896 C33.649,67.801 33.594,68.715 33.594,69.637 M35.412,79.658 C36.052,81.388 36.851,83.04 37.795,84.595 L30.398,85.116 L35.412,79.658 M42.439,90.436 C43.754,91.705 45.184,92.849 46.718,93.853 L40.295,97.512 L42.439,90.436 M83.557,61.113 C72.788,61.113 64.055,69.846 64.055,80.616 C64.055,81.923 64.187,83.204 64.435,84.438 L60.805,84.438 C54.152,84.438 48.763,89.831 48.763,96.48 C48.763,103.133 54.152,108.531 60.805,108.531 L108.983,108.531 C112.523,108.531 115.7,106.985 117.904,104.551 C120.991,101.75 122.938,97.723 122.938,93.23 C122.938,84.784 116.089,77.934 107.646,77.934 C106.007,77.934 104.435,78.199 102.957,78.677 C101.98,68.821 93.665,61.113 83.557,61.113 M60.805,81.443 C54.89,81.443 49.779,84.881 47.327,89.851 C41.191,85.231 37.211,77.907 37.211,69.636 C37.211,55.65 48.544,44.317 62.53,44.317 C72.39,44.317 80.909,49.958 85.09,58.182 C84.582,58.148 84.074,58.118 83.557,58.118 C71.152,58.118 61.056,68.209 61.056,80.615 C61.056,80.892 61.061,81.165 61.069,81.443 L60.805,81.443" fill="#196A91" id="Sun_Cloud"/>
  </g>
</svg>
