<?xml version="1.0" encoding="UTF-8"?>
<!DOCTYPE svg PUBLIC "-//W3C//DTD SVG 1.1//EN" "http://www.w3.org/Graphics/SVG/1.1/DTD/svg11.dtd">
<svg version="1.1" xmlns="http://www.w3.org/2000/svg" xmlns:xlink="http://www.w3.org/1999/xlink" x="0" y="0" width="520" height="160" viewBox="0, 0, 520, 160">
  <g id="Layer_1">
    <g id="Logo">
      <path d="M119.63,67.544 C124.6,70.564 127.881,74.942 128.3,80.813 C128.008,87.342 124.633,90.536 119.63,94.083 L119.63,67.544 z" fill="#D9EF8B"/>
      <path d="M180.235,0 L180.263,0.502 C163.21,2.84 147.625,5.447 132.187,8.856 C122.393,11.293 126.563,10.136 119.63,12.161 L119.63,0 L180.235,0 z" fill="#A6D96A"/>
      <path d="M180.263,10.683 L180.263,72.905 C163.099,57.34 142.441,50.82 119.63,49.956 L119.63,20.258 C139.476,15.14 159.864,12.397 180.263,10.683 z" fill="#D9EF8B"/>
      <path d="M122.773,55.14 C144.845,56.157 164.481,66.74 180.263,81.733 L180.263,119.198 C165.841,114.538 146.98,107.671 132.557,103.012 C137.069,87.789 137.331,69.172 119.63,62.982 L119.63,55.142 L122.773,55.14 z" fill="#A6D96A"/>
      <path d="M119.63,78.373 L134.187,85.403 L141.544,93.229 L180.14,105.968 L180.28,159.95 L119.63,159.95 L119.63,78.373 z" fill="#D9EF8B"/>
      <path d="M119.63,72.002 L133.732,78.977 L180.012,99.295 L180.032,107.22 L163.763,100.991 L119.63,121.691 L119.63,121.142 L148.016,95.306 L119.63,83.554 L119.63,72.002 z" fill="#66BD63"/>
      <path d="M180.28,121.755 L180.28,156.117 L180.28,159.935 L119.63,159.94 L119.63,124.809 C139.762,122.505 160.039,122.08 180.28,121.755 z" fill="#66BD63"/>
      <path d="M60.549,92.12 C66.663,96.676 73.691,99.795 80.731,102.614 C74.798,111.811 69.4,120.741 63.465,129.937 L60.549,129.271 L60.549,92.12 z" fill="#58AFD6"/>
      <path d="M119.63,0 L119.63,12.161 C101.387,16.974 84.046,24.62 68.565,35.421 C62.791,39.611 63.018,39.394 60.549,41.972 L60.549,0 L119.63,0 z" fill="#58AFD6"/>
      <path d="M119.63,20.258 L119.63,49.956 C104.995,50.089 91.802,53.949 80.734,63.752 C76.193,68.084 74.074,71.743 73.717,78.185 C72.994,91.212 87.054,98.57 106.948,103.068 C90.345,100.988 72.898,98.202 60.548,86.03 L60.548,51.486 C74.727,33.073 98.04,25.985 119.63,20.258 z" fill="#8FD1E9"/>
      <path d="M119.63,55.142 L119.63,62.982 C111.142,59.714 101.894,60.043 92.986,60.766 C101.362,57.003 110.463,55.149 119.63,55.142 z" fill="#58AFD6"/>
      <path d="M103.653,63.341 C108.892,63.504 115.241,64.432 119.63,67.544 L119.63,94.083 C114.934,97.193 109.155,98.089 103.653,98.286 C90.044,98.286 79.008,90.462 79.008,80.813 C79.008,71.165 90.044,63.341 103.653,63.341 z" fill="#C7E7F1"/>
      <path d="M115.427,76.343 L119.63,78.373 L119.63,159.95 L60.549,159.95 L60.549,98.558 L61.721,98.995 L76.435,108.879 L85.631,94.876 L95.075,93.893 L115.427,76.343 z" fill="#8FD1E9"/>
      <path d="M113.12,68.782 L119.63,72.002 L119.63,83.554 L119.338,83.433 L60.696,129.928 L60.696,116.055 L85.153,90.132 L93.384,88.31 L113.12,68.782 z" fill="#0073A2"/>
      <path d="M119.63,121.142 L119.63,121.691 L118.384,122.275 L119.63,121.142 z" fill="#0073A2"/>
      <path d="M60.549,92.261 L76.134,100.244 L70.547,108.037 L60.549,102.876 L60.549,92.261 z" fill="#0073A2"/>
      <path d="M119.63,124.809 L119.63,159.94 L60.696,159.945 L60.696,133.094 C80.149,129.055 99.862,126.614 119.63,124.809 z" fill="#0073A2"/>
      <path d="M0.046,110.845 C9.112,118.937 18.554,120.358 28.613,125.507 L0.226,160 L0.046,110.845" fill="#F6E8C3"/>
      <path d="M60.548,51.486 L60.548,86.03 C56.014,81.476 54.081,75.163 53.432,68.945 C54.396,61.979 56.909,57.313 60.548,51.486 z" fill="#F6E8C3"/>
      <path d="M60.549,0 L60.549,41.972 C52.892,49.482 45.119,58.916 46.037,70.383 C46.792,79.818 53.363,86.714 60.549,92.12 L60.549,129.271 C42.333,124.414 19.45,120.993 5.744,106.884 C2.73,103.782 2.049,102.479 0.045,99.334 L0.045,0 L60.549,0 z" fill="#DFC27D"/>
      <path d="M55.1,96.524 L60.549,98.558 L60.549,159.95 L0.167,159.95 L-0,142.819 L37.811,108.879 L43.329,108.879 L55.1,96.524 z" fill="#F6E8C3"/>
      <path d="M60.696,116.055 L60.696,129.928 L54.592,134.768 L40.564,137.394 L60.696,116.055 z" fill="#BF812D"/>
      <path d="M55.268,89.556 L60.549,92.261 L60.549,102.876 L59.145,102.151 L27.372,141.526 L0.083,147.608 L0.079,138.213 L37.074,100.68 L43.308,101.007 L55.268,89.556 z" fill="#BF812D"/>
      <path d="M60.696,133.094 L60.696,159.945 L0.046,159.95 L0.046,159.824 L0.056,147.305 C20.068,141.78 40.254,136.765 60.696,133.094 z" fill="#BF812D"/>
      <path d="M55.012,136.467 C51.34,137.299 46.882,137.763 43.727,139.984 C54.946,140.224 49.339,140.029 60.548,140.568 L60.548,140.568 C66.777,140.891 73.006,141.235 79.229,141.643 C102.184,143.168 88.712,142.191 119.63,144.777 L119.629,144.776 C126.599,145.359 121.123,144.874 136.012,146.67 C139.634,147.171 142.632,147.629 146.097,148.428 C147.367,148.72 151.896,149.847 148.789,151.207 C139.601,155.142 129.45,156.177 119.63,157.455 L119.629,157.455 C110.847,158.527 102.026,159.245 93.207,159.939 L60.549,159.943 L60.549,159.943 L0.045,159.95 C20.174,157.908 40.366,156.594 60.548,155.217 L60.548,155.217 C76.305,154.07 92.088,153.259 107.83,151.915 C109.103,151.806 116.085,151.468 117.37,150.612 C116.808,149.338 108.356,148.596 107.622,148.503 C103.976,148.045 98.912,147.517 95.321,147.173 C83.739,146.063 72.142,145.11 60.549,144.129 L60.548,144.128 C53.532,143.511 46.507,142.969 39.506,142.192 C37.409,141.96 34.822,141.812 32.758,141.125 C39.686,137.718 47.417,136.933 55.012,136.467 L55.012,136.467 L55.013,136.467 L55.013,136.467 L55.012,136.467 z" fill="#92C5F2"/>
    </g>
    <path d="M216.9,142.78 C216.66,147.34 215.16,148.66 212.94,148.66 C208.62,148.66 208.26,143.74 208.26,137.14 C208.26,130.18 208.68,125.62 213.12,125.62 C215.22,125.62 217.02,126.58 217.26,131.5 L232.98,131.5 C232.92,118.78 223.68,114.34 212.76,114.34 C198.12,114.34 190.08,123.46 190.5,136.96 C190.5,150.7 197.52,159.94 212.7,159.94 C223.44,159.94 232.98,154.72 232.98,142.78 z" fill="#000000"/>
    <path d="M236.64,158.8 L251.16,158.8 L251.16,115.48 L236.64,115.48 z" fill="#000000"/>
    <path d="M255.48,158.8 L270,158.8 L270,128.68 L255.48,128.68 z M255.48,124.72 L270,124.72 L270,115.48 L255.48,115.48 z" fill="#000000"/>
    <path d="M274.62,158.8 L289.14,158.8 L289.14,140.02 C289.14,137.62 290.4,136.66 291.78,136.66 C293.16,136.66 294.3,137.8 294.3,139.9 L294.3,158.8 L308.82,158.8 L308.82,140.02 C308.82,137.62 310.08,136.66 311.46,136.66 C312.84,136.66 313.98,137.8 313.98,139.9 L313.98,158.8 L328.5,158.8 L328.5,138.76 C328.5,130.78 324.12,127.78 318.06,127.78 C314.64,127.78 311.04,128.92 308.58,133.24 C306.72,129.52 303.36,127.78 298.74,127.78 C295.32,127.78 291.72,128.92 289.26,133.24 L289.14,133.24 L288.78,128.68 L274.62,128.68 z" fill="#000000"/>
    <path d="M350.94,140.02 L349.2,140.02 C337.92,140.02 331.92,143.08 331.92,150.52 C331.92,156.46 336.24,159.7 342.36,159.7 C345.66,159.7 348.84,158.68 350.94,155.92 L351.3,158.8 L364.02,158.8 L364.02,138.46 C364.02,131.44 360.3,127.78 348.72,127.78 C341.1,127.78 333.66,129.52 333.18,137.62 L345.18,137.62 C345.36,135.1 346.32,134.5 348.12,134.5 C350.16,134.5 350.94,135.4 350.94,136.9 z M350.94,148.18 C350.94,150.64 350.16,152.26 347.64,152.26 C345.42,152.26 344.28,151.06 344.28,149.14 C344.28,147.46 345.12,145.66 348.96,145.66 L350.94,145.66 z" fill="#000000"/>
    <path d="M370.68,151.24 C370.68,157.96 375.9,159.7 381.54,159.7 C384.42,159.7 387.9,159.1 391.2,158.38 L391.2,149.5 C389.88,149.86 388.68,149.86 387.66,149.86 C385.92,149.86 385.2,149.08 385.2,146.8 L385.2,137.56 L391.74,137.56 L391.74,128.68 L385.2,128.68 L385.2,118.78 L370.68,123.82 L370.68,128.68 L366.78,128.68 L366.78,137.56 L370.68,137.56 z" fill="#000000"/>
    <path d="M415.2,149.14 C414.78,151.3 413.22,152.26 411.6,152.26 C408.72,152.26 407.52,150.76 407.52,147.28 L407.52,146.38 L428.28,146.38 L428.28,144.34 C428.28,133.6 422.82,127.78 411.42,127.78 C400.62,127.78 393.6,133.18 393.6,143.56 C393.6,155.74 401.52,159.7 410.34,159.7 C421.62,159.7 426.84,155.98 427.92,149.14 z M407.52,140.02 L407.52,139.6 C407.52,136.72 409.08,135.22 411.42,135.22 C413.7,135.22 415.2,136.72 415.2,139.6 L415.2,140.02 z" fill="#000000"/>
    <path d="M192.06,100.5 L213.42,100.5 C226.74,100.5 235.26,92.4 235.26,79.32 C235.26,66.48 229.74,57.18 212.4,57.18 L192.06,57.18 z M208.86,67.02 L210.54,67.02 C213.3,67.02 214.92,68.04 216,69.78 C217.14,71.58 217.5,74.64 217.5,78.84 C217.5,83.04 217.14,86.1 216,87.9 C214.92,89.64 213.3,90.66 210.54,90.66 L208.86,90.66 z" fill="#000000"/>
    <path d="M238.92,100.5 L253.44,100.5 L253.44,84.72 C253.44,82.8 254.4,80.94 257.16,80.94 C259.74,80.94 261.54,81.36 263.22,81.78 L263.22,70.86 C261.84,70.14 260.58,70.02 259.38,70.02 C257.52,70.02 255.54,70.98 253.44,73.68 L253.08,70.38 L238.92,70.38 z" fill="#000000"/>
    <path d="M263.88,85.44 C263.88,94.98 270.06,101.4 282.3,101.4 C294.54,101.4 300.72,94.98 300.72,85.44 C300.72,75.9 294.54,69.48 282.3,69.48 C270.06,69.48 263.88,75.9 263.88,85.44 z M278.88,85.44 C278.88,79.44 279.96,77.64 282.3,77.64 C284.64,77.64 285.72,79.44 285.72,85.44 C285.72,91.44 284.64,93.24 282.3,93.24 C279.96,93.24 278.88,91.44 278.88,85.44 z" fill="#000000"/>
    <path d="M339,70.38 L324.48,70.38 L324.48,89.16 C324.48,91.56 323.22,92.52 321.6,92.52 C319.86,92.52 318.96,91.26 318.96,89.04 L318.96,70.38 L304.44,70.38 L304.44,90.42 C304.44,98.4 308.82,101.4 314.88,101.4 C318.3,101.4 321.9,100.26 324.36,95.94 L324.48,95.94 L324.84,100.5 L339,100.5 z" fill="#000000"/>
    <path d="M361.02,91.8 C357.84,91.8 357.72,89.4 357.72,85.74 C357.72,82.38 357.72,78 361.26,78 C364.68,78 364.68,81.48 364.68,85.02 C364.68,88.68 364.62,91.8 361.02,91.8 z M365.16,99.84 C365.16,103.62 363.9,104.94 361.38,104.94 C360.36,104.94 359.58,104.7 359.04,104.28 C358.5,103.86 358.26,103.2 358.26,102.54 L343.98,102.54 C344.64,108.66 348.66,112.74 360.42,112.74 C371.16,112.74 378.6,110.04 378.6,97.8 L378.6,70.38 L364.92,70.38 L364.68,73.68 L364.56,73.68 C362.64,70.56 359.52,69.48 355.98,69.48 C348.48,69.48 342.72,74.28 342.72,85.56 C342.72,96.48 349.74,99.96 355.68,99.96 C359.04,99.96 362.76,99.24 365.04,96.06 L365.16,96.06 z" fill="#000000"/>
    <path d="M383.28,100.5 L397.8,100.5 L397.8,81.72 C397.8,79.32 399.06,78.36 400.68,78.36 C402.42,78.36 403.32,79.62 403.32,81.84 L403.32,100.5 L417.84,100.5 L417.84,80.46 C417.84,72.48 413.46,69.48 407.4,69.48 C402.48,69.48 400.02,71.22 397.92,74.46 L397.8,74.46 L397.8,57.18 L383.28,57.18 z" fill="#000000"/>
    <path d="M424.2,92.94 C424.2,99.66 429.42,101.4 435.06,101.4 C437.94,101.4 441.42,100.8 444.72,100.08 L444.72,91.2 C443.4,91.56 442.2,91.56 441.18,91.56 C439.44,91.56 438.72,90.78 438.72,88.5 L438.72,79.26 L445.26,79.26 L445.26,70.38 L438.72,70.38 L438.72,60.48 L424.2,65.52 L424.2,70.38 L420.3,70.38 L420.3,79.26 L424.2,79.26 z" fill="#000000"/>
    <path d="M503.76,100.5 L520.2,100.5 L511.38,91.26 C515.16,88.14 517.92,81.48 517.92,76.62 L505.56,76.62 C505.44,79.14 504.54,81.42 503.04,83.34 L497.7,78.12 C503.64,74.4 506.28,70.08 506.28,66.24 C506.28,60.48 500.7,56.04 489.36,56.04 C478.32,56.04 471.84,59.82 471.84,66.84 C471.84,70.56 474.6,74.22 478.86,77.1 C470.7,79.44 467.76,84.06 467.76,88.5 C467.76,96.6 474.72,101.64 486.66,101.64 C491.76,101.64 496.8,100.56 501.12,97.92 z M494.04,91.26 C491.76,92.64 489.54,93.48 487.62,93.48 C484.86,93.48 482.28,91.56 482.28,88.8 C482.28,87.12 483.78,84.96 486.84,84.12 z M485.28,66.72 C485.28,65.34 486.12,63.84 489.24,63.84 C492.36,63.84 493.2,65.34 493.2,66.72 C493.2,67.8 491.88,69.72 489.24,71.4 C486.6,69.72 485.28,67.8 485.28,66.72 z" fill="#000000"/>
    <path d="M234.78,43.5 L249.3,43.5 L249.3,0.18 L225.48,0.18 L220.74,25.98 L220.62,25.98 L215.88,0.18 L192.06,0.18 L192.06,43.5 L206.58,43.5 L206.58,12.54 L206.7,12.54 L212.82,43.5 L228.54,43.5 L234.66,12.54 L234.78,12.54 z" fill="#000000"/>
    <path d="M253.92,28.44 C253.92,37.98 260.1,44.4 272.34,44.4 C284.58,44.4 290.76,37.98 290.76,28.44 C290.76,18.9 284.58,12.48 272.34,12.48 C260.1,12.48 253.92,18.9 253.92,28.44 z M268.92,28.44 C268.92,22.44 270,20.64 272.34,20.64 C274.68,20.64 275.76,22.44 275.76,28.44 C275.76,34.44 274.68,36.24 272.34,36.24 C270,36.24 268.92,34.44 268.92,28.44 z" fill="#000000"/>
    <path d="M294.48,43.5 L309,43.5 L309,24.72 C309,22.32 310.26,21.36 311.88,21.36 C313.62,21.36 314.52,22.62 314.52,24.84 L314.52,43.5 L329.04,43.5 L329.04,23.46 C329.04,15.48 324.66,12.48 318.6,12.48 C315.18,12.48 311.58,13.62 309.12,17.94 L309,17.94 L308.64,13.38 L294.48,13.38 z" fill="#000000"/>
    <path d="M335.4,35.94 C335.4,42.66 340.62,44.4 346.26,44.4 C349.14,44.4 352.62,43.8 355.92,43.08 L355.92,34.2 C354.6,34.56 353.4,34.56 352.38,34.56 C350.64,34.56 349.92,33.78 349.92,31.5 L349.92,22.26 L356.46,22.26 L356.46,13.38 L349.92,13.38 L349.92,3.48 L335.4,8.52 L335.4,13.38 L331.5,13.38 L331.5,22.26 L335.4,22.26 z" fill="#000000"/>
    <path d="M376.74,24.72 L375,24.72 C363.72,24.72 357.72,27.78 357.72,35.22 C357.72,41.16 362.04,44.4 368.16,44.4 C371.46,44.4 374.64,43.38 376.74,40.62 L377.1,43.5 L389.82,43.5 L389.82,23.16 C389.82,16.14 386.1,12.48 374.52,12.48 C366.9,12.48 359.46,14.22 358.98,22.32 L370.98,22.32 C371.16,19.8 372.12,19.2 373.92,19.2 C375.96,19.2 376.74,20.1 376.74,21.6 z M376.74,32.88 C376.74,35.34 375.96,36.96 373.44,36.96 C371.22,36.96 370.08,35.76 370.08,33.84 C370.08,32.16 370.92,30.36 374.76,30.36 L376.74,30.36 z" fill="#000000"/>
    <path d="M394.44,43.5 L408.96,43.5 L408.96,24.72 C408.96,22.32 410.22,21.36 411.84,21.36 C413.58,21.36 414.48,22.62 414.48,24.84 L414.48,43.5 L429,43.5 L429,23.46 C429,15.48 424.62,12.48 418.56,12.48 C415.14,12.48 411.54,13.62 409.08,17.94 L408.96,17.94 L408.6,13.38 L394.44,13.38 z" fill="#000000"/>
    <path d="M451.14,24.72 L449.4,24.72 C438.12,24.72 432.12,27.78 432.12,35.22 C432.12,41.16 436.44,44.4 442.56,44.4 C445.86,44.4 449.04,43.38 451.14,40.62 L451.5,43.5 L464.22,43.5 L464.22,23.16 C464.22,16.14 460.5,12.48 448.92,12.48 C441.3,12.48 433.86,14.22 433.38,22.32 L445.38,22.32 C445.56,19.8 446.52,19.2 448.32,19.2 C450.36,19.2 451.14,20.1 451.14,21.6 z M451.14,32.88 C451.14,35.34 450.36,36.96 447.84,36.96 C445.62,36.96 444.48,35.76 444.48,33.84 C444.48,32.16 445.32,30.36 449.16,30.36 L451.14,30.36 z" fill="#000000"/>
  </g>
</svg>
