<?xml version="1.0" encoding="UTF-8"?>
<!DOCTYPE svg PUBLIC "-//W3C//DTD SVG 1.1//EN" "http://www.w3.org/Graphics/SVG/1.1/DTD/svg11.dtd">
<svg version="1.1" xmlns="http://www.w3.org/2000/svg" xmlns:xlink="http://www.w3.org/1999/xlink" x="0" y="0" width="150" height="150" viewBox="0, 0, 150, 150">
  <g id="Precipitation">
    <path d="M75,150 C33.579,150 -0,116.421 -0,75 C-0,33.579 33.579,0 75,-0 C116.421,0 150,33.579 150,75 C150,116.421 116.421,150 75,150 z" fill="#8FCBDB" id="Full"/>
    <g id="Rain">
      <path d="M72.216,72.439 C77.216,80.439 87.216,88.439 87.216,97.439 C87.216,106.439 81.216,114.439 72.216,114.439 C62.861,114.439 57.216,106.439 57.216,97.439 C57.216,88.439 67.216,80.439 72.216,72.439 L72.216,72.439 z" fill="#196A91"/>
      <path d="M56.617,40.899 C60.283,46.765 67.617,52.632 67.617,59.232 C67.617,65.832 63.217,71.699 56.617,71.699 C49.757,71.699 45.617,65.832 45.617,59.232 C45.617,52.632 52.95,46.765 56.617,40.899 L56.617,40.899 z" fill="#196A91"/>
      <path d="M90.883,34.639 C95.383,41.839 104.383,49.039 104.383,57.139 C104.383,65.239 98.983,72.439 90.883,72.439 C82.464,72.439 77.383,65.239 77.383,57.139 C77.383,49.039 86.383,41.839 90.883,34.639 L90.883,34.639 z" fill="#196A91"/>
    </g>
  </g>
</svg>
