<?xml version="1.0" encoding="UTF-8"?>
<!DOCTYPE svg PUBLIC "-//W3C//DTD SVG 1.1//EN" "http://www.w3.org/Graphics/SVG/1.1/DTD/svg11.dtd">
<svg version="1.1" xmlns="http://www.w3.org/2000/svg" xmlns:xlink="http://www.w3.org/1999/xlink" x="0" y="0" width="150" height="150" viewBox="0, 0, 150, 150">
  <g id="Temperature">
    <path d="M75,150 C33.579,150 -0,116.421 -0,75 C-0,33.579 33.579,0 75,-0 C116.421,0 150,33.579 150,75 C150,116.421 116.421,150 75,150 z" fill="#8FCBDB" id="Full"/>
    <path d="M74.453,21.413 C80.734,21.413 85.841,26.524 85.841,32.8 L85.841,97.779 C89.244,100.943 91.178,105.35 91.178,110.025 C91.178,119.248 83.671,126.75 74.448,126.75 C65.229,126.75 57.723,119.248 57.723,110.025 C57.723,105.345 59.657,100.939 63.065,97.775 L63.065,89.5 C62.334,89.573 61.591,89.611 60.84,89.602 C48.756,89.53 39.025,79.675 39.101,67.591 C39.178,55.512 49.033,45.777 61.113,45.858 C61.775,45.862 62.424,45.9 63.065,45.964 L63.065,32.8 C63.065,26.524 68.171,21.413 74.453,21.413 z M74.453,25.683 C70.528,25.683 67.335,28.877 67.335,32.8 L67.335,99.752 L66.553,100.396 C63.658,102.771 61.997,106.285 61.997,110.025 C61.997,116.891 67.582,122.48 74.448,122.48 C81.319,122.48 86.908,116.891 86.908,110.025 C86.908,106.285 85.247,102.775 82.348,100.401 L81.571,99.756 L81.571,32.8 C81.571,28.877 78.377,25.683 74.453,25.683 z M77.299,34.405 L77.299,101.775 L79.639,103.696 C81.544,105.259 82.637,107.569 82.637,110.024 C82.637,114.538 78.965,118.21 74.451,118.21 C69.938,118.21 66.266,114.538 66.266,110.024 C66.266,107.565 67.359,105.259 69.263,103.692 L71.608,101.775 L71.608,34.405 L77.299,34.405 z M77.79,106.826 C76.416,106.826 75.301,108.099 75.301,109.67 C75.301,111.245 76.416,112.518 77.79,112.518 C79.165,112.518 80.28,111.245 80.28,109.67 C80.28,108.099 79.165,106.826 77.79,106.826 z M52.988,91.406 L53.932,97.721 L57.595,92.474 C56.007,92.26 54.465,91.906 52.988,91.406 z M96.652,92.586 L87.399,92.586 L87.399,94.717 L96.652,94.717 L96.652,92.586 z M43.502,85.589 L41.614,91.687 L47.182,88.561 C45.863,87.686 44.633,86.687 43.502,85.589 z M96.652,84.196 L87.399,84.196 L87.399,86.331 L96.652,86.331 L96.652,84.196 z M37.496,76.237 L33.136,80.925 L39.524,80.516 C38.717,79.166 38.038,77.736 37.496,76.237 z M96.652,75.81 L87.399,75.81 L87.399,77.945 L96.652,77.945 L96.652,75.81 z M36.114,65.209 L30.174,67.532 L36.084,69.94 C36.016,69.159 35.973,68.369 35.977,67.571 C35.981,66.776 36.033,65.986 36.114,65.209 z M96.652,67.42 L87.399,67.42 L87.399,69.555 L96.652,69.555 L96.652,67.42 z M96.652,59.034 L87.399,59.034 L87.399,61.169 L96.652,61.169 L96.652,59.034 z M33.304,54.183 L37.604,58.922 C38.168,57.432 38.868,56.014 39.688,54.669 L33.304,54.183 z M96.652,50.648 L87.399,50.648 L87.399,52.783 L96.652,52.783 L96.652,50.648 z M41.919,43.525 L43.734,49.652 C44.874,48.563 46.117,47.581 47.449,46.723 L41.919,43.525 z M96.652,42.262 L87.399,42.262 L87.399,44.397 L96.652,44.397 L96.652,42.262 z M54.314,37.651 L53.289,43.953 C54.771,43.47 56.321,43.137 57.909,42.945 L54.314,37.651 z M96.652,33.872 L87.399,33.872 L87.399,36.007 L96.652,36.007 L96.652,33.872 z" fill="#196A91" id="Thermometer"/>
  </g>
</svg>
